<svg width="22" height="24" viewBox="0 0 22 24" fill="none" xmlns="http://www.w3.org/2000/svg">
<path fill-rule="evenodd" clip-rule="evenodd" d="M10.5659 18.6316L5.1933 21.881C4.76434 22.1271 4.23587 21.9529 3.99939 21.4874V21.4874C3.93097 21.3432 3.89406 21.1834 3.8916 21.0206V6.62242C3.8916 3.87643 5.59127 2.77803 8.03713 2.77803H13.7828C16.1541 2.77803 17.9283 3.8032 17.9283 6.43936V21.0206C17.9283 21.2803 17.8349 21.5295 17.6685 21.7131C17.5021 21.8968 17.2765 22 17.0412 22C16.8911 21.9974 16.7436 21.9567 16.6101 21.881L11.2043 18.6316C11.0051 18.5128 10.7651 18.5128 10.5659 18.6316Z" stroke="#67686D" stroke-width="2" stroke-linecap="round" stroke-linejoin="round"/>
</svg>
